<?xml version="1.0" encoding="utf-8"?>
<!-- Generator: Adobe Illustrator 19.0.0, SVG Export Plug-In . SVG Version: 6.00 Build 0)  -->
<svg version="1.1" xmlns="http://www.w3.org/2000/svg" xmlns:xlink="http://www.w3.org/1999/xlink" width="100%" height="100%" viewBox="0 0 250.5 217.5">

<style type="text/css">
	.st0{fill:#FFFFFF;}
	.st1{

		font-family:'Roboto';
		font-weight:700;
	}
	.st2{font-size:35px;}
	.st3{fill:none;stroke:#FFFFFF;stroke-width:1.5;stroke-linecap:round;stroke-linejoin:round;stroke-miterlimit:10;}
	.st4{
		font-family:'Roboto';
		font-weight:300;

	}
	.st5{font-size:30px;}
	.st6{letter-spacing:2;}
</style>

<g id="Objects">
	<text transform="matrix(0.8901 0 0 1 38.8682 132.8689)" class="st0 st1 st2">CHRISTMAS</text>
	<g>
		<path class="st3" d="M121.8,174.3c-1,0.3-1.6,1.5-1.3,2.5c0.5,1.4,2,2.2,3.4,1.7c1.9-0.6,2.9-2.7,2.3-4.6c-0.8-2.6-3-3.8-6.2-3.1
			l-11.2,2.2c-6.7,1.3-11.8-0.8-13.5-6.1c-1.3-4,1.2-8.8,5.1-10.1c2.9-1,6.4,0.8,7.4,3.7c0.7,2.2-0.5,4.5-2.6,5.2
			c-1.6,0.5-3.3-0.3-3.8-1.9c-0.4-1.2,0.3-2.5,1.4-2.8"/>
		<path class="st3" d="M145,174.3c1,0.3,1.6,1.5,1.3,2.5c-0.5,1.4-2,2.2-3.4,1.7c-1.9-0.6-2.9-2.7-2.3-4.6c0.8-2.6,3-3.8,6.2-3.1
			L158,173c6.7,1.3,11.8-0.8,13.5-6.1c1.3-4-1.2-8.8-5.1-10.1c-2.9-1-6.4,0.8-7.4,3.7c-0.7,2.2,0.5,4.5,2.6,5.2
			c1.6,0.5,3.3-0.3,3.8-1.9c0.4-1.2-0.3-2.5-1.4-2.8"/>
		<path class="st3" d="M176.9,151.5c-1.4-0.8-1.8-2.6-1-4c1.1-1.8,3.5-2.4,5.3-1.3c2.5,1.5,3.3,4.7,1.8,7.2c-2,3.4-5.4,4.3-9.8,2.4
			l-15.1-6.9c-9-4.1-16.8-2.8-21.1,4.2c-3.1,5.2-1.3,12.8,3.9,15.9c3.8,2.3,9.3,1,11.6-2.8c1.7-2.8,0.8-6.5-2-8.2
			c-2.1-1.3-4.8-0.6-6.1,1.5c-0.9,1.5-0.4,3.5,1.1,4.5"/>
		<path class="st3" d="M89.9,151.5c1.4-0.8,1.8-2.6,1-4c-1.1-1.8-3.5-2.4-5.3-1.3c-2.5,1.5-3.3,4.7-1.8,7.2c2,3.4,5.4,4.3,9.8,2.4
			l15.1-6.9c9-4.1,16.8-2.8,21.1,4.2c3.1,5.2,1.3,12.8-3.9,15.9c-3.8,2.3-9.3,1-11.6-2.8c-1.7-2.8-0.8-6.5,2-8.2
			c2.1-1.3,4.8-0.6,6.1,1.5c0.9,1.5,0.4,3.5-1.1,4.5"/>
	</g>
	<g>
		<text transform="matrix(1 0 0 1 79.7475 95.0852)" class="st0 st4 st5 st6">MERRY</text>
	</g>
	<g>
		<g>
			<g>
				<g>
					<path class="st3" d="M184.9,46.7c-1.1,0.4-2.2-0.2-2.6-1.2c-0.5-1.4,0.2-3,1.7-3.5c1.9-0.7,4.1,0.3,4.8,2.3
						c0.9,2.6,0,4.9-3.1,6.5l-7.5,3.7"/>
				</g>
				<g>
					<path class="st3" d="M188.3,61.9c-0.6-1.2-0.1-2.6,1.1-3.2c1.6-0.8,3.6-0.2,4.4,1.4c1.1,2.2,0.2,4.8-1.9,5.9
						c-2.9,1.5-5.8,0.7-8-2.6l-7.7-11.5c-4.6-6.8-10.7-9.4-16.8-6.3c-4.5,2.3-6.5,8.5-4.3,13c1.7,3.3,6.2,4.8,9.5,3.1
						c2.5-1.2,3.4-4.2,2.2-6.7c-0.9-1.8-3.1-2.5-5-1.6c-1.3,0.7-1.9,2.3-1.2,3.7"/>
				</g>
			</g>
			<g>
				<g>
					<path class="st3" d="M80.7,46.7c1.1,0.4,2.2-0.2,2.6-1.2c0.5-1.4-0.2-3-1.7-3.5c-1.9-0.7-4.1,0.3-4.8,2.3
						c-0.9,2.6,0,4.9,3.1,6.5l7.5,3.7"/>
				</g>
				<g>
					<path class="st3" d="M77.2,61.9c0.6-1.2,0.1-2.6-1.1-3.2c-1.6-0.8-3.6-0.2-4.4,1.4c-1.1,2.2-0.2,4.8,1.9,5.9
						c2.9,1.5,5.8,0.7,8-2.6l7.7-11.5c4.6-6.8,10.7-9.4,16.8-6.3c4.5,2.3,6.5,8.5,4.3,13c-1.7,3.3-6.2,4.8-9.5,3.1
						c-2.5-1.2-3.4-4.2-2.2-6.7c0.9-1.8,3.1-2.5,5-1.6c1.3,0.7,1.9,2.3,1.2,3.7"/>
				</g>
			</g>
		</g>
	</g>
	<g>
		<g>
			<g>
				<g>
					<path class="st0" d="M68.2,75.3l-7.4-7.4c-0.2-0.2-0.7-0.2-0.9,0l-7.4,7.4c-0.2,0.2-0.2,0.5-0.1,0.7c0.1,0.2,0.3,0.4,0.6,0.4
						h14.8c0.3,0,0.5-0.2,0.6-0.4C68.4,75.8,68.4,75.5,68.2,75.3z"/>
					<path class="st0" d="M71.7,83.6L61,72.8c-0.4-0.4-0.9-0.4-1.3,0L48.9,83.6c-0.3,0.3-0.3,0.7-0.2,1c0.1,0.3,0.5,0.6,0.9,0.6
						h21.5c0.4,0,0.7-0.2,0.9-0.6C72.1,84.2,72,83.8,71.7,83.6z"/>
					<path class="st0" d="M75,93.1L61.2,79.2c-0.5-0.5-1.2-0.5-1.7,0L45.6,93.1c-0.3,0.3-0.4,0.9-0.3,1.3c0.2,0.4,0.6,0.7,1.1,0.7
						h27.7c0.5,0,0.9-0.3,1.1-0.7C75.5,93.9,75.4,93.4,75,93.1z"/>
				</g>
				<path class="st0" d="M63.7,63.1c-0.1-0.2-0.2-0.3-0.5-0.3h-1.9l-0.6-1.8c-0.1-0.2-0.2-0.3-0.5-0.3c-0.2,0-0.4,0.1-0.5,0.3
					l-0.6,1.8h-1.9c-0.2,0-0.4,0.1-0.5,0.3c-0.1,0.2,0,0.4,0.2,0.5l1.5,1.1l-0.6,1.8c-0.1,0.2,0,0.4,0.2,0.5c0.2,0.1,0.4,0.1,0.6,0
					l1.5-1.1l1.5,1.1c0.1,0.1,0.2,0.1,0.3,0.1c0.1,0,0.2,0,0.3-0.1c0.2-0.1,0.2-0.3,0.2-0.5L62,64.7l1.5-1.1
					C63.7,63.5,63.7,63.2,63.7,63.1z"/>
			</g>
		</g>
		<g>
			<g>
				<g>
					<path class="st0" d="M213.1,75.3l-7.4-7.4c-0.2-0.2-0.7-0.2-0.9,0l-7.4,7.4c-0.2,0.2-0.2,0.5-0.1,0.7c0.1,0.2,0.3,0.4,0.6,0.4
						h14.8c0.3,0,0.5-0.2,0.6-0.4C213.3,75.8,213.3,75.5,213.1,75.3z"/>
					<path class="st0" d="M216.7,83.6l-10.8-10.8c-0.4-0.4-0.9-0.4-1.3,0l-10.8,10.8c-0.3,0.3-0.3,0.7-0.2,1
						c0.1,0.3,0.5,0.6,0.9,0.6H216c0.4,0,0.7-0.2,0.9-0.6C217,84.2,216.9,83.8,216.7,83.6z"/>
					<path class="st0" d="M219.9,93.1l-13.9-13.9c-0.5-0.5-1.2-0.5-1.7,0l-13.9,13.9c-0.3,0.3-0.4,0.9-0.3,1.3
						c0.2,0.4,0.6,0.7,1.1,0.7h27.7c0.5,0,0.9-0.3,1.1-0.7C220.4,93.9,220.3,93.4,219.9,93.1z"/>
				</g>
				<path class="st0" d="M208.6,63.1c-0.1-0.2-0.2-0.3-0.5-0.3h-1.9l-0.6-1.8c-0.1-0.2-0.2-0.3-0.5-0.3c-0.2,0-0.4,0.1-0.5,0.3
					l-0.6,1.8h-1.9c-0.2,0-0.4,0.1-0.5,0.3c-0.1,0.2,0,0.4,0.2,0.5l1.5,1.1l-0.6,1.8c-0.1,0.2,0,0.4,0.2,0.5c0.2,0.1,0.4,0.1,0.6,0
					l1.5-1.1l1.5,1.1c0.1,0.1,0.2,0.1,0.3,0.1s0.2,0,0.3-0.1c0.2-0.1,0.2-0.3,0.2-0.5l-0.6-1.8l1.5-1.1
					C208.6,63.5,208.7,63.2,208.6,63.1z"/>
			</g>
		</g>
	</g>
	<polygon class="st0" points="133.4,37.1 135.9,45.2 144.1,43.3 138.4,49.5 144.1,55.7 135.9,53.8 133.4,61.9 130.9,53.8 
		122.7,55.7 128.4,49.5 122.7,43.3 130.9,45.2 	"/>
	<line class="st3" x1="39.1" y1="102.1" x2="227.7" y2="102.1"/>
	<line class="st3" x1="39.1" y1="138.1" x2="227.7" y2="138.1"/>
</g>
</svg>
