<?xml version="1.0" encoding="utf-8"?>
<!-- Generator: Adobe Illustrator 19.0.0, SVG Export Plug-In . SVG Version: 6.00 Build 0)  -->
<svg version="1.1" xmlns="http://www.w3.org/2000/svg" xmlns:xlink="http://www.w3.org/1999/xlink" x="0px" y="0px"
	 viewBox="0 0 270 112" style="enable-background:new 0 0 270 112;" xml:space="preserve">
<style type="text/css">
	.st0{fill:none;stroke:#E30613;stroke-width:1.5;stroke-linecap:round;stroke-linejoin:round;stroke-miterlimit:10;}
	.st1{fill:#E30613;}
</style>
<g id="Background">
</g>
<g id="Objects">
	<g>
		<g>
			<g>
				<g>
					<path class="st0" d="M178.5,52.7c-0.9,0.3-1.9-0.1-2.2-1c-0.4-1.2,0.2-2.6,1.4-3c1.6-0.6,3.5,0.3,4,1.9c0.8,2.2,0,4.2-2.6,5.5
						l-6.3,3.1"/>
				</g>
				<g>
					<path class="st0" d="M181.4,65.6c-0.5-1-0.1-2.2,0.9-2.7c1.4-0.7,3-0.1,3.7,1.2c0.9,1.8,0.2,4.1-1.6,5
						c-2.5,1.3-4.9,0.6-6.7-2.2l-6.5-9.7c-3.9-5.8-9.1-7.9-14.2-5.3c-3.8,1.9-5.5,7.2-3.6,11c1.4,2.8,5.2,4,8,2.6
						c2.1-1.1,2.9-3.6,1.9-5.7c-0.8-1.5-2.7-2.1-4.2-1.4c-1.1,0.6-1.6,2-1,3.1"/>
				</g>
			</g>
			<g>
				<g>
					<path class="st0" d="M90.4,52.7c0.9,0.3,1.9-0.1,2.2-1c0.4-1.2-0.2-2.6-1.4-3c-1.6-0.6-3.5,0.3-4,1.9c-0.8,2.2,0,4.2,2.6,5.5
						l6.3,3.1"/>
				</g>
				<g>
					<path class="st0" d="M87.5,65.6c0.5-1,0.1-2.2-0.9-2.7c-1.4-0.7-3-0.1-3.7,1.2c-0.9,1.8-0.2,4.1,1.6,5c2.5,1.3,4.9,0.6,6.7-2.2
						l6.5-9.7c3.9-5.8,9.1-7.9,14.2-5.3c3.8,1.9,5.5,7.2,3.6,11c-1.4,2.8-5.2,4-8,2.6c-2.1-1.1-2.9-3.6-1.9-5.7
						c0.8-1.5,2.7-2.1,4.2-1.4c1.1,0.6,1.6,2,1,3.1"/>
				</g>
			</g>
		</g>
	</g>
	<g>
		<g>
			<g>
				<g>
					<path class="st1" d="M69.8,49.9l-7.4-7.4c-0.2-0.2-0.7-0.2-0.9,0l-7.4,7.4c-0.2,0.2-0.2,0.5-0.1,0.7c0.1,0.2,0.3,0.4,0.6,0.4
						h14.8c0.3,0,0.5-0.2,0.6-0.4C70,50.4,70,50.1,69.8,49.9z"/>
					<path class="st1" d="M73.3,58.2L62.6,47.4c-0.4-0.4-0.9-0.4-1.3,0L50.5,58.2c-0.3,0.3-0.3,0.7-0.2,1c0.1,0.3,0.5,0.6,0.9,0.6
						h21.5c0.4,0,0.7-0.2,0.9-0.6C73.7,58.9,73.6,58.5,73.3,58.2z"/>
					<path class="st1" d="M76.6,67.7L62.8,53.8c-0.5-0.5-1.2-0.5-1.7,0L47.2,67.7C46.9,68,46.8,68.5,47,69c0.2,0.4,0.6,0.7,1.1,0.7
						h27.7c0.5,0,0.9-0.3,1.1-0.7C77.1,68.5,77,68,76.6,67.7z"/>
				</g>
				<path class="st1" d="M65.3,37.7c-0.1-0.2-0.2-0.3-0.5-0.3H63l-0.6-1.8c-0.1-0.2-0.2-0.3-0.5-0.3c-0.2,0-0.4,0.1-0.5,0.3
					l-0.6,1.8H59c-0.2,0-0.4,0.1-0.5,0.3c-0.1,0.2,0,0.4,0.2,0.5l1.5,1.1l-0.6,1.8c-0.1,0.2,0,0.4,0.2,0.5c0.2,0.1,0.4,0.1,0.6,0
					l1.5-1.1l1.5,1.1c0.1,0.1,0.2,0.1,0.3,0.1s0.2,0,0.3-0.1c0.2-0.1,0.2-0.3,0.2-0.5l-0.6-1.8l1.5-1.1
					C65.3,38.1,65.3,37.9,65.3,37.7z"/>
			</g>
		</g>
		<g>
			<g>
				<g>
					<path class="st1" d="M214.7,49.9l-7.4-7.4c-0.2-0.2-0.7-0.2-0.9,0l-7.4,7.4c-0.2,0.2-0.2,0.5-0.1,0.7c0.1,0.2,0.3,0.4,0.6,0.4
						h14.8c0.3,0,0.5-0.2,0.6-0.4C214.9,50.4,214.9,50.1,214.7,49.9z"/>
					<path class="st1" d="M218.2,58.2l-10.8-10.8c-0.4-0.4-0.9-0.4-1.3,0l-10.8,10.8c-0.3,0.3-0.3,0.7-0.2,1
						c0.1,0.3,0.5,0.6,0.9,0.6h21.5c0.4,0,0.7-0.2,0.9-0.6C218.6,58.9,218.5,58.5,218.2,58.2z"/>
					<path class="st1" d="M221.5,67.7l-13.9-13.9c-0.5-0.5-1.2-0.5-1.7,0l-13.9,13.9c-0.3,0.3-0.4,0.9-0.3,1.3
						c0.2,0.4,0.6,0.7,1.1,0.7h27.7c0.5,0,0.9-0.3,1.1-0.7C222,68.5,221.9,68,221.5,67.7z"/>
				</g>
				<path class="st1" d="M210.2,37.7c-0.1-0.2-0.2-0.3-0.5-0.3h-1.9l-0.6-1.8c-0.1-0.2-0.2-0.3-0.5-0.3c-0.2,0-0.4,0.1-0.5,0.3
					l-0.6,1.8h-1.9c-0.2,0-0.4,0.1-0.5,0.3c-0.1,0.2,0,0.4,0.2,0.5l1.5,1.1l-0.6,1.8c-0.1,0.2,0,0.4,0.2,0.5c0.2,0.1,0.4,0.1,0.6,0
					l1.5-1.1l1.5,1.1c0.1,0.1,0.2,0.1,0.3,0.1s0.2,0,0.3-0.1c0.2-0.1,0.2-0.3,0.2-0.5l-0.6-1.8l1.5-1.1
					C210.2,38.1,210.3,37.9,210.2,37.7z"/>
			</g>
		</g>
	</g>
	<polygon class="st1" points="135,44.6 137.1,51.4 144,49.8 139.1,55.1 144,60.3 137.1,58.7 135,65.6 132.9,58.7 125.9,60.3 
		130.8,55.1 125.9,49.8 132.9,51.4 	"/>
	<line class="st0" x1="40.7" y1="76.8" x2="229.3" y2="76.8"/>
</g>
</svg>
